<svg xmlns="http://www.w3.org/2000/svg" xmlns:xlink="http://www.w3.org/1999/xlink" viewBox="0 0 651.54 721.61"><defs><style>.cls-1{fill:url(#Degradado_sin_nombre_98);}.cls-2{fill:url(#Degradado_sin_nombre_99);}.cls-3{fill:url(#Degradado_sin_nombre_47);}.cls-4,.cls-5,.cls-6{opacity:0.51;}.cls-4{fill:url(#Degradado_sin_nombre_98-2);}.cls-5{fill:url(#Degradado_sin_nombre_99-2);}.cls-6{fill:url(#Degradado_sin_nombre_47-2);}</style><linearGradient id="Degradado_sin_nombre_98" x1="101.03" y1="477.12" x2="319.36" y2="351.07" gradientUnits="userSpaceOnUse"><stop offset="0" stop-color="#6700c3"/><stop offset="0.14" stop-color="#6905c5"/><stop offset="0.31" stop-color="#7113ca"/><stop offset="0.48" stop-color="#7c29d2"/><stop offset="0.66" stop-color="#8d49dd"/><stop offset="0.85" stop-color="#a272ec"/><stop offset="1" stop-color="#b699fa"/></linearGradient><linearGradient id="Degradado_sin_nombre_99" x1="542.29" y1="214.88" x2="107.01" y2="214.88" gradientUnits="userSpaceOnUse"><stop offset="0.01" stop-color="#076bff"/><stop offset="0.23" stop-color="#0758ef"/><stop offset="0.74" stop-color="#0832cd"/><stop offset="1" stop-color="#0823c0"/></linearGradient><linearGradient id="Degradado_sin_nombre_47" x1="354.49" y1="329.35" x2="526.65" y2="501.51" gradientUnits="userSpaceOnUse"><stop offset="0" stop-color="#00cefc"/><stop offset="0.09" stop-color="#02b7fd"/><stop offset="0.23" stop-color="#049bfe"/><stop offset="0.37" stop-color="#0586fe"/><stop offset="0.53" stop-color="#0677ff"/><stop offset="0.72" stop-color="#076eff"/><stop offset="1" stop-color="#076bff"/></linearGradient><linearGradient id="Degradado_sin_nombre_98-2" x1="23.45" y1="522.37" x2="320.19" y2="351.05" xlink:href="#Degradado_sin_nombre_98"/><linearGradient id="Degradado_sin_nombre_99-2" x1="644.22" y1="170.74" x2="5.81" y2="170.74" xlink:href="#Degradado_sin_nombre_99"/><linearGradient id="Degradado_sin_nombre_47-2" x1="364.38" y1="319.2" x2="602.43" y2="557.25" xlink:href="#Degradado_sin_nombre_47"/></defs><g id="Capa_2" data-name="Capa 2"><g id="Capa_2-2" data-name="Capa 2"><g id="LOGO"><polygon class="cls-1" points="102.29 224.71 101.82 224.97 100.76 476.66 318.2 603.42 318.46 603.27 319.53 351.36 102.29 224.71"/><polygon class="cls-2" points="542.29 215.88 325.05 89.23 107.01 213.89 324.25 340.54 542.29 215.88"/><polygon class="cls-3" points="332.04 351.8 330.98 603.72 549.22 478.94 550.28 227.25 550.08 227.14 332.04 351.8"/><path class="cls-4" d="M1.81,165.72l-.68.39L0,434.05A175.31,175.31,0,0,0,87,586.23L318.49,721.18l.38-.23,1.56-369.48Z"/><path class="cls-5" d="M644.22,158.64,413,23.86a175.27,175.27,0,0,0-175.3-.74L5.81,155.72,324.43,341.47Z"/><path class="cls-6" d="M331.46,352.12,329.9,721.61,562.12,588.84A175.31,175.31,0,0,0,650.41,437.4l1.13-267.94-.29-.17Z"/></g></g></g></svg>